<svg xmlns="http://www.w3.org/2000/svg" width="220" height="420" viewBox="0 0 220 420"><defs><linearGradient id="bg" x1="0" y1="0" x2="1" y2="1"><stop stop-color="#111b25"/><stop offset="1" stop-color="#05090d"/></linearGradient></defs><rect width="220" height="420" rx="18" fill="url(#bg)"/><ellipse cx="110" cy="405" rx="72" ry="9" fill="#000" opacity=".55"/><circle cx="110" cy="92" r="45" fill="#d79a73"/><path d="M60 78 Q110 20 160 78 L150 115 Q110 92 70 115 Z" fill="#c0782f"/><circle cx="94" cy="94" r="4" fill="#151515"/><circle cx="126" cy="94" r="4" fill="#151515"/><path d="M98 112 Q110 120 122 112" fill="none" stroke="#7b4037" stroke-width="3"/><path d="M73 152 Q110 132 147 152 L166 285 L145 352 L75 352 L54 285 Z" fill="#3b2920"/><path d="M75 245 L145 245 L170 350 L50 350 Z" fill="#5a3219" opacity=".95"/><path d="M84 345 L104 345 L102 395 L82 395 Z M116 345 L136 345 L138 395 L118 395 Z" fill="#d79a73"/><path d="M80 392 L104 392 L105 410 L76 410 Z M116 392 L140 392 L145 410 L116 410 Z" fill="#e8d3aa"/><path d="M67 160 L38 245 L55 252 L83 180 M153 160 L182 245 L165 252 L137 180" fill="#3b2920"/><path d="M96 164 L124 164 L119 228 L101 228 Z" fill="#e8d3aa"/><circle cx="110" cy="194" r="7" fill="#e9c45b"/><text x="110" y="35" text-anchor="middle" fill="#d9b75e" font-family="Arial" font-size="12" font-weight="700">TERRITORY</text></svg>