<svg xmlns="http://www.w3.org/2000/svg" width="192" height="192" viewBox="0 0 192 192">
 <defs>
  <linearGradient id="bg" x1="0" y1="0" x2=".9" y2="1"><stop stop-color="#183c55"/><stop offset=".55" stop-color="#111b29"/><stop offset="1" stop-color="#090d16"/></linearGradient>
  <linearGradient id="gold" x1="0" y1="0" x2="0" y2="1"><stop stop-color="#fff3ad"/><stop offset=".28" stop-color="#ffcf4a"/><stop offset=".7" stop-color="#b9751e"/><stop offset="1" stop-color="#ffe7a0"/></linearGradient>
  <linearGradient id="steel" x1="0" y1="0" x2="1" y2="1"><stop stop-color="#ffffff"/><stop offset=".3" stop-color="#93b6c7"/><stop offset=".65" stop-color="#506b7d"/><stop offset="1" stop-color="#d8e7ef"/></linearGradient>
  <filter id="glow" x="-30%" y="-30%" width="160%" height="160%"><feGaussianBlur stdDeviation="3" result="b"/><feMerge><feMergeNode in="b"/><feMergeNode in="SourceGraphic"/></feMerge></filter>
 </defs>
 <rect x="7" y="7" width="178" height="178" rx="31" fill="#05080c" stroke="#56330f" stroke-width="5"/>
 <rect x="13" y="13" width="166" height="166" rx="26" fill="url(#bg)" stroke="url(#gold)" stroke-width="3"/>
 <circle cx="96" cy="93" r="58" fill="#3bbce9" opacity=".08"/>
 <g fill="none" stroke="url(#gold)" stroke-width="4" stroke-linecap="round" stroke-linejoin="round" opacity=".85">
  <path d="M96 39L103 46L113 43L117 53L127 57L126 68L134 75L130 85L134 96L126 104L127 115L116 119L112 130L101 128L92 135L84 127L73 129L69 118L58 114L61 103L53 95L58 84L54 74L64 67L64 56L76 54L82 44L92 47Z"/>
  <circle cx="94" cy="88" r="31" stroke-dasharray="4 7"/>
 </g>
 <g transform="rotate(-37 93 94)" filter="url(#glow)" stroke-linejoin="round">
  <path d="M79 43L109 43L112 57L106 65H82L76 57Z" fill="url(#steel)" stroke="#1a2a38" stroke-width="4"/>
  <path d="M92 63H99V140H92Z" fill="url(#gold)" stroke="#56330f" stroke-width="3"/>
  <path d="M87 131H105L109 143L96 153L83 143Z" fill="url(#gold)" stroke="#5c3914" stroke-width="3"/>
 </g>
 <g transform="rotate(36 100 100)" filter="url(#glow)" stroke-linecap="round" stroke-linejoin="round">
  <path d="M92 49L107 49L110 63L104 72H95L89 63Z" fill="url(#gold)" stroke="#633e11" stroke-width="4"/>
  <path d="M97 69H103V135H97Z" fill="url(#steel)" stroke="#243849" stroke-width="3"/>
  <path d="M86 126H114L120 137H80Z" fill="url(#steel)" stroke="#243849" stroke-width="3"/>
 </g>
 <circle cx="96" cy="95" r="11" fill="#0d1b29" stroke="url(#gold)" stroke-width="4"/>
 <path d="M92 95L95 99L102 90" fill="none" stroke="#aef4ff" stroke-width="3" stroke-linecap="round" stroke-linejoin="round"/>
 <g fill="#ffe9a0"><circle cx="33" cy="42" r="2"/><circle cx="158" cy="41" r="2"/><circle cx="31" cy="153" r="2"/><circle cx="160" cy="151" r="2"/></g>
</svg>
